G04 #@! TF.GenerationSoftware,KiCad,Pcbnew,(5.1.4-0)*
G04 #@! TF.CreationDate,2020-03-02T15:49:52+03:00*
G04 #@! TF.ProjectId,Diff2TTL,44696666-3254-4544-9c2e-6b696361645f,rev?*
G04 #@! TF.SameCoordinates,Original*
G04 #@! TF.FileFunction,Copper,L2,Bot*
G04 #@! TF.FilePolarity,Positive*
%FSLAX46Y46*%
G04 Gerber Fmt 4.6, Leading zero omitted, Abs format (unit mm)*
G04 Created by KiCad (PCBNEW (5.1.4-0)) date 2020-03-02 15:49:52*
%MOMM*%
%LPD*%
G04 APERTURE LIST*
%ADD10O,1.700000X1.700000*%
%ADD11R,1.700000X1.700000*%
%ADD12C,3.000000*%
%ADD13R,3.000000X3.000000*%
%ADD14O,2.400000X1.600000*%
%ADD15R,2.400000X1.600000*%
%ADD16C,4.000000*%
%ADD17C,0.250000*%
G04 APERTURE END LIST*
D10*
X122000000Y-87580000D03*
X122000000Y-85040000D03*
D11*
X122000000Y-82500000D03*
D10*
X115000000Y-87580000D03*
X115000000Y-85040000D03*
D11*
X115000000Y-82500000D03*
D12*
X140000000Y-74840000D03*
X140000000Y-79920000D03*
D13*
X140000000Y-85000000D03*
D12*
X140000000Y-60160000D03*
X140000000Y-55080000D03*
D13*
X140000000Y-50000000D03*
D12*
X95000000Y-74840000D03*
X95000000Y-79920000D03*
D13*
X95000000Y-85000000D03*
D12*
X95000000Y-60160000D03*
X95000000Y-55080000D03*
D13*
X95000000Y-50000000D03*
D12*
X115580000Y-47000000D03*
D13*
X110500000Y-47000000D03*
D14*
X122120000Y-58500000D03*
X114500000Y-76280000D03*
X122120000Y-61040000D03*
X114500000Y-73740000D03*
X122120000Y-63580000D03*
X114500000Y-71200000D03*
X122120000Y-66120000D03*
X114500000Y-68660000D03*
X122120000Y-68660000D03*
X114500000Y-66120000D03*
X122120000Y-71200000D03*
X114500000Y-63580000D03*
X122120000Y-73740000D03*
X114500000Y-61040000D03*
X122120000Y-76280000D03*
D15*
X114500000Y-58500000D03*
D16*
X102000000Y-91000000D03*
X133500000Y-91000000D03*
X102000000Y-45500000D03*
D17*
X121720000Y-58500000D02*
X118500000Y-61720000D01*
X122120000Y-58500000D02*
X121720000Y-58500000D01*
X118500000Y-84080000D02*
X115000000Y-87580000D01*
X118500000Y-61720000D02*
X118500000Y-84080000D01*
M02*
