M48
; DRILL file {KiCad (5.1.4-0)} date понедельник, 02 марта 2020 г., 15:50:17
; FORMAT={-:-/ absolute / inch / decimal}
; #@! TF.CreationDate,2020-03-02T15:50:17+03:00
; #@! TF.GenerationSoftware,Kicad,Pcbnew,(5.1.4-0)
; #@! TF.FileFunction,Plated,1,2,PTH
FMAT,2
INCH
T1C0.0315
T2C0.0394
T3C0.0598
T4C0.1378
%
G90
G05
T1
X4.5079Y-2.3031
X4.5079Y-2.4031
X4.5079Y-2.5031
X4.5079Y-2.6031
X4.5079Y-2.7031
X4.5079Y-2.8031
X4.5079Y-2.9031
X4.5079Y-3.0031
X4.8079Y-2.3031
X4.8079Y-2.4031
X4.8079Y-2.5031
X4.8079Y-2.6031
X4.8079Y-2.7031
X4.8079Y-2.8031
X4.8079Y-2.9031
X4.8079Y-3.0031
T2
X4.5276Y-3.248
X4.5276Y-3.348
X4.5276Y-3.448
X4.8031Y-3.248
X4.8031Y-3.348
X4.8031Y-3.448
T3
X4.3504Y-1.8504
X4.5504Y-1.8504
X5.5118Y-1.9685
X5.5118Y-2.1685
X5.5118Y-2.3685
X3.7402Y-1.9685
X3.7402Y-2.1685
X3.7402Y-2.3685
X5.5118Y-2.9465
X5.5118Y-3.1465
X5.5118Y-3.3465
X3.7402Y-2.9465
X3.7402Y-3.1465
X3.7402Y-3.3465
T4
X4.0157Y-1.7913
X4.0157Y-3.5827
X5.2559Y-3.5827
T0
M30
