G04 #@! TF.GenerationSoftware,KiCad,Pcbnew,(5.1.4-0)*
G04 #@! TF.CreationDate,2020-03-02T15:49:52+03:00*
G04 #@! TF.ProjectId,Diff2TTL,44696666-3254-4544-9c2e-6b696361645f,rev?*
G04 #@! TF.SameCoordinates,Original*
G04 #@! TF.FileFunction,Legend,Top*
G04 #@! TF.FilePolarity,Positive*
%FSLAX46Y46*%
G04 Gerber Fmt 4.6, Leading zero omitted, Abs format (unit mm)*
G04 Created by KiCad (PCBNEW (5.1.4-0)) date 2020-03-02 15:49:52*
%MOMM*%
%LPD*%
G04 APERTURE LIST*
%ADD10C,0.150000*%
%ADD11C,0.120000*%
%ADD12C,0.300000*%
G04 APERTURE END LIST*
D10*
X92690476Y-92452380D02*
X92214285Y-92452380D01*
X92166666Y-92928571D01*
X92214285Y-92880952D01*
X92309523Y-92833333D01*
X92547619Y-92833333D01*
X92642857Y-92880952D01*
X92690476Y-92928571D01*
X92738095Y-93023809D01*
X92738095Y-93261904D01*
X92690476Y-93357142D01*
X92642857Y-93404761D01*
X92547619Y-93452380D01*
X92309523Y-93452380D01*
X92214285Y-93404761D01*
X92166666Y-93357142D01*
X93642857Y-92452380D02*
X93166666Y-92452380D01*
X93119047Y-92928571D01*
X93166666Y-92880952D01*
X93261904Y-92833333D01*
X93500000Y-92833333D01*
X93595238Y-92880952D01*
X93642857Y-92928571D01*
X93690476Y-93023809D01*
X93690476Y-93261904D01*
X93642857Y-93357142D01*
X93595238Y-93404761D01*
X93500000Y-93452380D01*
X93261904Y-93452380D01*
X93166666Y-93404761D01*
X93119047Y-93357142D01*
X94023809Y-93452380D02*
X94547619Y-92785714D01*
X94023809Y-92785714D02*
X94547619Y-93452380D01*
X95404761Y-92452380D02*
X94928571Y-92452380D01*
X94880952Y-92928571D01*
X94928571Y-92880952D01*
X95023809Y-92833333D01*
X95261904Y-92833333D01*
X95357142Y-92880952D01*
X95404761Y-92928571D01*
X95452380Y-93023809D01*
X95452380Y-93261904D01*
X95404761Y-93357142D01*
X95357142Y-93404761D01*
X95261904Y-93452380D01*
X95023809Y-93452380D01*
X94928571Y-93404761D01*
X94880952Y-93357142D01*
X95833333Y-92547619D02*
X95880952Y-92500000D01*
X95976190Y-92452380D01*
X96214285Y-92452380D01*
X96309523Y-92500000D01*
X96357142Y-92547619D01*
X96404761Y-92642857D01*
X96404761Y-92738095D01*
X96357142Y-92880952D01*
X95785714Y-93452380D01*
X96404761Y-93452380D01*
X96833333Y-93357142D02*
X96880952Y-93404761D01*
X96833333Y-93452380D01*
X96785714Y-93404761D01*
X96833333Y-93357142D01*
X96833333Y-93452380D01*
X97785714Y-92452380D02*
X97309523Y-92452380D01*
X97261904Y-92928571D01*
X97309523Y-92880952D01*
X97404761Y-92833333D01*
X97642857Y-92833333D01*
X97738095Y-92880952D01*
X97785714Y-92928571D01*
X97833333Y-93023809D01*
X97833333Y-93261904D01*
X97785714Y-93357142D01*
X97738095Y-93404761D01*
X97642857Y-93452380D01*
X97404761Y-93452380D01*
X97309523Y-93404761D01*
X97261904Y-93357142D01*
X132761904Y-59785714D02*
X132761904Y-60452380D01*
X132523809Y-59404761D02*
X132285714Y-60119047D01*
X132904761Y-60119047D01*
X133476190Y-59452380D02*
X133666666Y-59452380D01*
X133761904Y-59500000D01*
X133857142Y-59595238D01*
X133904761Y-59785714D01*
X133904761Y-60119047D01*
X133857142Y-60309523D01*
X133761904Y-60404761D01*
X133666666Y-60452380D01*
X133476190Y-60452380D01*
X133380952Y-60404761D01*
X133285714Y-60309523D01*
X133238095Y-60119047D01*
X133238095Y-59785714D01*
X133285714Y-59595238D01*
X133380952Y-59500000D01*
X133476190Y-59452380D01*
X134333333Y-59452380D02*
X134333333Y-60261904D01*
X134380952Y-60357142D01*
X134428571Y-60404761D01*
X134523809Y-60452380D01*
X134714285Y-60452380D01*
X134809523Y-60404761D01*
X134857142Y-60357142D01*
X134904761Y-60261904D01*
X134904761Y-59452380D01*
X135238095Y-59452380D02*
X135809523Y-59452380D01*
X135523809Y-60452380D02*
X135523809Y-59452380D01*
X134261904Y-53285714D02*
X134261904Y-53952380D01*
X134023809Y-52904761D02*
X133785714Y-53619047D01*
X134404761Y-53619047D01*
X134738095Y-53666666D02*
X135214285Y-53666666D01*
X134642857Y-53952380D02*
X134976190Y-52952380D01*
X135309523Y-53952380D01*
X134190476Y-48285714D02*
X134190476Y-48952380D01*
X133952380Y-47904761D02*
X133714285Y-48619047D01*
X134333333Y-48619047D01*
X135047619Y-48428571D02*
X135190476Y-48476190D01*
X135238095Y-48523809D01*
X135285714Y-48619047D01*
X135285714Y-48761904D01*
X135238095Y-48857142D01*
X135190476Y-48904761D01*
X135095238Y-48952380D01*
X134714285Y-48952380D01*
X134714285Y-47952380D01*
X135047619Y-47952380D01*
X135142857Y-48000000D01*
X135190476Y-48047619D01*
X135238095Y-48142857D01*
X135238095Y-48238095D01*
X135190476Y-48333333D01*
X135142857Y-48380952D01*
X135047619Y-48428571D01*
X134714285Y-48428571D01*
X132238095Y-72952380D02*
X132857142Y-72952380D01*
X132523809Y-73333333D01*
X132666666Y-73333333D01*
X132761904Y-73380952D01*
X132809523Y-73428571D01*
X132857142Y-73523809D01*
X132857142Y-73761904D01*
X132809523Y-73857142D01*
X132761904Y-73904761D01*
X132666666Y-73952380D01*
X132380952Y-73952380D01*
X132285714Y-73904761D01*
X132238095Y-73857142D01*
X133476190Y-72952380D02*
X133666666Y-72952380D01*
X133761904Y-73000000D01*
X133857142Y-73095238D01*
X133904761Y-73285714D01*
X133904761Y-73619047D01*
X133857142Y-73809523D01*
X133761904Y-73904761D01*
X133666666Y-73952380D01*
X133476190Y-73952380D01*
X133380952Y-73904761D01*
X133285714Y-73809523D01*
X133238095Y-73619047D01*
X133238095Y-73285714D01*
X133285714Y-73095238D01*
X133380952Y-73000000D01*
X133476190Y-72952380D01*
X134333333Y-72952380D02*
X134333333Y-73761904D01*
X134380952Y-73857142D01*
X134428571Y-73904761D01*
X134523809Y-73952380D01*
X134714285Y-73952380D01*
X134809523Y-73904761D01*
X134857142Y-73857142D01*
X134904761Y-73761904D01*
X134904761Y-72952380D01*
X135238095Y-72952380D02*
X135809523Y-72952380D01*
X135523809Y-73952380D02*
X135523809Y-72952380D01*
X133738095Y-77952380D02*
X134357142Y-77952380D01*
X134023809Y-78333333D01*
X134166666Y-78333333D01*
X134261904Y-78380952D01*
X134309523Y-78428571D01*
X134357142Y-78523809D01*
X134357142Y-78761904D01*
X134309523Y-78857142D01*
X134261904Y-78904761D01*
X134166666Y-78952380D01*
X133880952Y-78952380D01*
X133785714Y-78904761D01*
X133738095Y-78857142D01*
X134738095Y-78666666D02*
X135214285Y-78666666D01*
X134642857Y-78952380D02*
X134976190Y-77952380D01*
X135309523Y-78952380D01*
X133666666Y-82952380D02*
X134285714Y-82952380D01*
X133952380Y-83333333D01*
X134095238Y-83333333D01*
X134190476Y-83380952D01*
X134238095Y-83428571D01*
X134285714Y-83523809D01*
X134285714Y-83761904D01*
X134238095Y-83857142D01*
X134190476Y-83904761D01*
X134095238Y-83952380D01*
X133809523Y-83952380D01*
X133714285Y-83904761D01*
X133666666Y-83857142D01*
X135047619Y-83428571D02*
X135190476Y-83476190D01*
X135238095Y-83523809D01*
X135285714Y-83619047D01*
X135285714Y-83761904D01*
X135238095Y-83857142D01*
X135190476Y-83904761D01*
X135095238Y-83952380D01*
X134714285Y-83952380D01*
X134714285Y-82952380D01*
X135047619Y-82952380D01*
X135142857Y-83000000D01*
X135190476Y-83047619D01*
X135238095Y-83142857D01*
X135238095Y-83238095D01*
X135190476Y-83333333D01*
X135142857Y-83380952D01*
X135047619Y-83428571D01*
X134714285Y-83428571D01*
X99785714Y-72547619D02*
X99833333Y-72500000D01*
X99928571Y-72452380D01*
X100166666Y-72452380D01*
X100261904Y-72500000D01*
X100309523Y-72547619D01*
X100357142Y-72642857D01*
X100357142Y-72738095D01*
X100309523Y-72880952D01*
X99738095Y-73452380D01*
X100357142Y-73452380D01*
X100976190Y-72452380D02*
X101166666Y-72452380D01*
X101261904Y-72500000D01*
X101357142Y-72595238D01*
X101404761Y-72785714D01*
X101404761Y-73119047D01*
X101357142Y-73309523D01*
X101261904Y-73404761D01*
X101166666Y-73452380D01*
X100976190Y-73452380D01*
X100880952Y-73404761D01*
X100785714Y-73309523D01*
X100738095Y-73119047D01*
X100738095Y-72785714D01*
X100785714Y-72595238D01*
X100880952Y-72500000D01*
X100976190Y-72452380D01*
X101833333Y-72452380D02*
X101833333Y-73261904D01*
X101880952Y-73357142D01*
X101928571Y-73404761D01*
X102023809Y-73452380D01*
X102214285Y-73452380D01*
X102309523Y-73404761D01*
X102357142Y-73357142D01*
X102404761Y-73261904D01*
X102404761Y-72452380D01*
X102738095Y-72452380D02*
X103309523Y-72452380D01*
X103023809Y-73452380D02*
X103023809Y-72452380D01*
X100285714Y-78047619D02*
X100333333Y-78000000D01*
X100428571Y-77952380D01*
X100666666Y-77952380D01*
X100761904Y-78000000D01*
X100809523Y-78047619D01*
X100857142Y-78142857D01*
X100857142Y-78238095D01*
X100809523Y-78380952D01*
X100238095Y-78952380D01*
X100857142Y-78952380D01*
X101238095Y-78666666D02*
X101714285Y-78666666D01*
X101142857Y-78952380D02*
X101476190Y-77952380D01*
X101809523Y-78952380D01*
X100214285Y-83047619D02*
X100261904Y-83000000D01*
X100357142Y-82952380D01*
X100595238Y-82952380D01*
X100690476Y-83000000D01*
X100738095Y-83047619D01*
X100785714Y-83142857D01*
X100785714Y-83238095D01*
X100738095Y-83380952D01*
X100166666Y-83952380D01*
X100785714Y-83952380D01*
X101547619Y-83428571D02*
X101690476Y-83476190D01*
X101738095Y-83523809D01*
X101785714Y-83619047D01*
X101785714Y-83761904D01*
X101738095Y-83857142D01*
X101690476Y-83904761D01*
X101595238Y-83952380D01*
X101214285Y-83952380D01*
X101214285Y-82952380D01*
X101547619Y-82952380D01*
X101642857Y-83000000D01*
X101690476Y-83047619D01*
X101738095Y-83142857D01*
X101738095Y-83238095D01*
X101690476Y-83333333D01*
X101642857Y-83380952D01*
X101547619Y-83428571D01*
X101214285Y-83428571D01*
X100357142Y-60952380D02*
X99785714Y-60952380D01*
X100071428Y-60952380D02*
X100071428Y-59952380D01*
X99976190Y-60095238D01*
X99880952Y-60190476D01*
X99785714Y-60238095D01*
X100976190Y-59952380D02*
X101166666Y-59952380D01*
X101261904Y-60000000D01*
X101357142Y-60095238D01*
X101404761Y-60285714D01*
X101404761Y-60619047D01*
X101357142Y-60809523D01*
X101261904Y-60904761D01*
X101166666Y-60952380D01*
X100976190Y-60952380D01*
X100880952Y-60904761D01*
X100785714Y-60809523D01*
X100738095Y-60619047D01*
X100738095Y-60285714D01*
X100785714Y-60095238D01*
X100880952Y-60000000D01*
X100976190Y-59952380D01*
X101833333Y-59952380D02*
X101833333Y-60761904D01*
X101880952Y-60857142D01*
X101928571Y-60904761D01*
X102023809Y-60952380D01*
X102214285Y-60952380D01*
X102309523Y-60904761D01*
X102357142Y-60857142D01*
X102404761Y-60761904D01*
X102404761Y-59952380D01*
X102738095Y-59952380D02*
X103309523Y-59952380D01*
X103023809Y-60952380D02*
X103023809Y-59952380D01*
X100285714Y-48452380D02*
X99714285Y-48452380D01*
X100000000Y-48452380D02*
X100000000Y-47452380D01*
X99904761Y-47595238D01*
X99809523Y-47690476D01*
X99714285Y-47738095D01*
X101047619Y-47928571D02*
X101190476Y-47976190D01*
X101238095Y-48023809D01*
X101285714Y-48119047D01*
X101285714Y-48261904D01*
X101238095Y-48357142D01*
X101190476Y-48404761D01*
X101095238Y-48452380D01*
X100714285Y-48452380D01*
X100714285Y-47452380D01*
X101047619Y-47452380D01*
X101142857Y-47500000D01*
X101190476Y-47547619D01*
X101238095Y-47642857D01*
X101238095Y-47738095D01*
X101190476Y-47833333D01*
X101142857Y-47880952D01*
X101047619Y-47928571D01*
X100714285Y-47928571D01*
X100357142Y-54952380D02*
X99785714Y-54952380D01*
X100071428Y-54952380D02*
X100071428Y-53952380D01*
X99976190Y-54095238D01*
X99880952Y-54190476D01*
X99785714Y-54238095D01*
X100738095Y-54666666D02*
X101214285Y-54666666D01*
X100642857Y-54952380D02*
X100976190Y-53952380D01*
X101309523Y-54952380D01*
X106166666Y-93452380D02*
X106166666Y-92452380D01*
X106404761Y-92452380D01*
X106547619Y-92500000D01*
X106642857Y-92595238D01*
X106690476Y-92690476D01*
X106738095Y-92880952D01*
X106738095Y-93023809D01*
X106690476Y-93214285D01*
X106642857Y-93309523D01*
X106547619Y-93404761D01*
X106404761Y-93452380D01*
X106166666Y-93452380D01*
X107166666Y-93452380D02*
X107166666Y-92785714D01*
X107166666Y-92452380D02*
X107119047Y-92500000D01*
X107166666Y-92547619D01*
X107214285Y-92500000D01*
X107166666Y-92452380D01*
X107166666Y-92547619D01*
X107500000Y-92785714D02*
X107880952Y-92785714D01*
X107642857Y-93452380D02*
X107642857Y-92595238D01*
X107690476Y-92500000D01*
X107785714Y-92452380D01*
X107880952Y-92452380D01*
X108071428Y-92785714D02*
X108452380Y-92785714D01*
X108214285Y-93452380D02*
X108214285Y-92595238D01*
X108261904Y-92500000D01*
X108357142Y-92452380D01*
X108452380Y-92452380D01*
X109404761Y-92785714D02*
X109785714Y-92785714D01*
X109547619Y-92452380D02*
X109547619Y-93309523D01*
X109595238Y-93404761D01*
X109690476Y-93452380D01*
X109785714Y-93452380D01*
X110261904Y-93452380D02*
X110166666Y-93404761D01*
X110119047Y-93357142D01*
X110071428Y-93261904D01*
X110071428Y-92976190D01*
X110119047Y-92880952D01*
X110166666Y-92833333D01*
X110261904Y-92785714D01*
X110404761Y-92785714D01*
X110500000Y-92833333D01*
X110547619Y-92880952D01*
X110595238Y-92976190D01*
X110595238Y-93261904D01*
X110547619Y-93357142D01*
X110500000Y-93404761D01*
X110404761Y-93452380D01*
X110261904Y-93452380D01*
X111642857Y-92452380D02*
X112214285Y-92452380D01*
X111928571Y-93452380D02*
X111928571Y-92452380D01*
X112404761Y-92452380D02*
X112976190Y-92452380D01*
X112690476Y-93452380D02*
X112690476Y-92452380D01*
X113785714Y-93452380D02*
X113309523Y-93452380D01*
X113309523Y-92452380D01*
X114833333Y-93404761D02*
X114976190Y-93452380D01*
X115214285Y-93452380D01*
X115309523Y-93404761D01*
X115357142Y-93357142D01*
X115404761Y-93261904D01*
X115404761Y-93166666D01*
X115357142Y-93071428D01*
X115309523Y-93023809D01*
X115214285Y-92976190D01*
X115023809Y-92928571D01*
X114928571Y-92880952D01*
X114880952Y-92833333D01*
X114833333Y-92738095D01*
X114833333Y-92642857D01*
X114880952Y-92547619D01*
X114928571Y-92500000D01*
X115023809Y-92452380D01*
X115261904Y-92452380D01*
X115404761Y-92500000D01*
X115833333Y-93452380D02*
X115833333Y-92785714D01*
X115833333Y-92452380D02*
X115785714Y-92500000D01*
X115833333Y-92547619D01*
X115880952Y-92500000D01*
X115833333Y-92452380D01*
X115833333Y-92547619D01*
X116738095Y-92785714D02*
X116738095Y-93595238D01*
X116690476Y-93690476D01*
X116642857Y-93738095D01*
X116547619Y-93785714D01*
X116404761Y-93785714D01*
X116309523Y-93738095D01*
X116738095Y-93404761D02*
X116642857Y-93452380D01*
X116452380Y-93452380D01*
X116357142Y-93404761D01*
X116309523Y-93357142D01*
X116261904Y-93261904D01*
X116261904Y-92976190D01*
X116309523Y-92880952D01*
X116357142Y-92833333D01*
X116452380Y-92785714D01*
X116642857Y-92785714D01*
X116738095Y-92833333D01*
X117214285Y-92785714D02*
X117214285Y-93452380D01*
X117214285Y-92880952D02*
X117261904Y-92833333D01*
X117357142Y-92785714D01*
X117500000Y-92785714D01*
X117595238Y-92833333D01*
X117642857Y-92928571D01*
X117642857Y-93452380D01*
X118547619Y-93452380D02*
X118547619Y-92928571D01*
X118500000Y-92833333D01*
X118404761Y-92785714D01*
X118214285Y-92785714D01*
X118119047Y-92833333D01*
X118547619Y-93404761D02*
X118452380Y-93452380D01*
X118214285Y-93452380D01*
X118119047Y-93404761D01*
X118071428Y-93309523D01*
X118071428Y-93214285D01*
X118119047Y-93119047D01*
X118214285Y-93071428D01*
X118452380Y-93071428D01*
X118547619Y-93023809D01*
X119166666Y-93452380D02*
X119071428Y-93404761D01*
X119023809Y-93309523D01*
X119023809Y-92452380D01*
X120880952Y-93357142D02*
X120833333Y-93404761D01*
X120690476Y-93452380D01*
X120595238Y-93452380D01*
X120452380Y-93404761D01*
X120357142Y-93309523D01*
X120309523Y-93214285D01*
X120261904Y-93023809D01*
X120261904Y-92880952D01*
X120309523Y-92690476D01*
X120357142Y-92595238D01*
X120452380Y-92500000D01*
X120595238Y-92452380D01*
X120690476Y-92452380D01*
X120833333Y-92500000D01*
X120880952Y-92547619D01*
X121452380Y-93452380D02*
X121357142Y-93404761D01*
X121309523Y-93357142D01*
X121261904Y-93261904D01*
X121261904Y-92976190D01*
X121309523Y-92880952D01*
X121357142Y-92833333D01*
X121452380Y-92785714D01*
X121595238Y-92785714D01*
X121690476Y-92833333D01*
X121738095Y-92880952D01*
X121785714Y-92976190D01*
X121785714Y-93261904D01*
X121738095Y-93357142D01*
X121690476Y-93404761D01*
X121595238Y-93452380D01*
X121452380Y-93452380D01*
X122214285Y-92785714D02*
X122214285Y-93452380D01*
X122214285Y-92880952D02*
X122261904Y-92833333D01*
X122357142Y-92785714D01*
X122500000Y-92785714D01*
X122595238Y-92833333D01*
X122642857Y-92928571D01*
X122642857Y-93452380D01*
X123023809Y-92785714D02*
X123261904Y-93452380D01*
X123500000Y-92785714D01*
X124261904Y-93404761D02*
X124166666Y-93452380D01*
X123976190Y-93452380D01*
X123880952Y-93404761D01*
X123833333Y-93309523D01*
X123833333Y-92928571D01*
X123880952Y-92833333D01*
X123976190Y-92785714D01*
X124166666Y-92785714D01*
X124261904Y-92833333D01*
X124309523Y-92928571D01*
X124309523Y-93023809D01*
X123833333Y-93119047D01*
X124738095Y-93452380D02*
X124738095Y-92785714D01*
X124738095Y-92976190D02*
X124785714Y-92880952D01*
X124833333Y-92833333D01*
X124928571Y-92785714D01*
X125023809Y-92785714D01*
X125214285Y-92785714D02*
X125595238Y-92785714D01*
X125357142Y-92452380D02*
X125357142Y-93309523D01*
X125404761Y-93404761D01*
X125500000Y-93452380D01*
X125595238Y-93452380D01*
X126309523Y-93404761D02*
X126214285Y-93452380D01*
X126023809Y-93452380D01*
X125928571Y-93404761D01*
X125880952Y-93309523D01*
X125880952Y-92928571D01*
X125928571Y-92833333D01*
X126023809Y-92785714D01*
X126214285Y-92785714D01*
X126309523Y-92833333D01*
X126357142Y-92928571D01*
X126357142Y-93023809D01*
X125880952Y-93119047D01*
X126785714Y-93452380D02*
X126785714Y-92785714D01*
X126785714Y-92976190D02*
X126833333Y-92880952D01*
X126880952Y-92833333D01*
X126976190Y-92785714D01*
X127071428Y-92785714D01*
X128071428Y-92785714D02*
X128309523Y-93452380D01*
X128547619Y-92785714D01*
X129452380Y-93452380D02*
X128880952Y-93452380D01*
X129166666Y-93452380D02*
X129166666Y-92452380D01*
X129071428Y-92595238D01*
X128976190Y-92690476D01*
X128880952Y-92738095D01*
X129880952Y-93357142D02*
X129928571Y-93404761D01*
X129880952Y-93452380D01*
X129833333Y-93404761D01*
X129880952Y-93357142D01*
X129880952Y-93452380D01*
X130547619Y-92452380D02*
X130642857Y-92452380D01*
X130738095Y-92500000D01*
X130785714Y-92547619D01*
X130833333Y-92642857D01*
X130880952Y-92833333D01*
X130880952Y-93071428D01*
X130833333Y-93261904D01*
X130785714Y-93357142D01*
X130738095Y-93404761D01*
X130642857Y-93452380D01*
X130547619Y-93452380D01*
X130452380Y-93404761D01*
X130404761Y-93357142D01*
X130357142Y-93261904D01*
X130309523Y-93071428D01*
X130309523Y-92833333D01*
X130357142Y-92642857D01*
X130404761Y-92547619D01*
X130452380Y-92500000D01*
X130547619Y-92452380D01*
X125761904Y-86428571D02*
X126095238Y-86428571D01*
X126238095Y-86952380D02*
X125761904Y-86952380D01*
X125761904Y-85952380D01*
X126238095Y-85952380D01*
X126666666Y-86952380D02*
X126666666Y-85952380D01*
X127238095Y-86952380D01*
X127238095Y-85952380D01*
X109761904Y-86428571D02*
X110095238Y-86428571D01*
X110238095Y-86952380D02*
X109761904Y-86952380D01*
X109761904Y-85952380D01*
X110238095Y-85952380D01*
X110666666Y-86952380D02*
X110666666Y-85952380D01*
X111238095Y-86952380D01*
X111238095Y-85952380D01*
D11*
X125000000Y-89000000D02*
X124000000Y-89000000D01*
X125000000Y-84000000D02*
X125000000Y-89000000D01*
X124000000Y-84000000D02*
X125000000Y-84000000D01*
X112000000Y-89000000D02*
X113000000Y-89000000D01*
X112000000Y-84000000D02*
X112000000Y-89000000D01*
X113000000Y-84000000D02*
X112000000Y-84000000D01*
D10*
X120309523Y-90428571D02*
X120642857Y-90428571D01*
X120785714Y-90952380D02*
X120309523Y-90952380D01*
X120309523Y-89952380D01*
X120785714Y-89952380D01*
X121214285Y-90952380D02*
X121214285Y-89952380D01*
X121785714Y-90952380D01*
X121785714Y-89952380D01*
X122166666Y-89952380D02*
X122785714Y-89952380D01*
X122452380Y-90333333D01*
X122595238Y-90333333D01*
X122690476Y-90380952D01*
X122738095Y-90428571D01*
X122785714Y-90523809D01*
X122785714Y-90761904D01*
X122738095Y-90857142D01*
X122690476Y-90904761D01*
X122595238Y-90952380D01*
X122309523Y-90952380D01*
X122214285Y-90904761D01*
X122166666Y-90857142D01*
X123642857Y-90285714D02*
X123642857Y-90952380D01*
X123404761Y-89904761D02*
X123166666Y-90619047D01*
X123785714Y-90619047D01*
X113309523Y-90428571D02*
X113642857Y-90428571D01*
X113785714Y-90952380D02*
X113309523Y-90952380D01*
X113309523Y-89952380D01*
X113785714Y-89952380D01*
X114214285Y-90952380D02*
X114214285Y-89952380D01*
X114785714Y-90952380D01*
X114785714Y-89952380D01*
X115785714Y-90952380D02*
X115214285Y-90952380D01*
X115500000Y-90952380D02*
X115500000Y-89952380D01*
X115404761Y-90095238D01*
X115309523Y-90190476D01*
X115214285Y-90238095D01*
X116166666Y-90047619D02*
X116214285Y-90000000D01*
X116309523Y-89952380D01*
X116547619Y-89952380D01*
X116642857Y-90000000D01*
X116690476Y-90047619D01*
X116738095Y-90142857D01*
X116738095Y-90238095D01*
X116690476Y-90380952D01*
X116119047Y-90952380D01*
X116738095Y-90952380D01*
X138928571Y-71357142D02*
X138880952Y-71404761D01*
X138738095Y-71452380D01*
X138642857Y-71452380D01*
X138500000Y-71404761D01*
X138404761Y-71309523D01*
X138357142Y-71214285D01*
X138309523Y-71023809D01*
X138309523Y-70880952D01*
X138357142Y-70690476D01*
X138404761Y-70595238D01*
X138500000Y-70500000D01*
X138642857Y-70452380D01*
X138738095Y-70452380D01*
X138880952Y-70500000D01*
X138928571Y-70547619D01*
X139357142Y-71452380D02*
X139357142Y-70452380D01*
X139357142Y-70928571D02*
X139928571Y-70928571D01*
X139928571Y-71452380D02*
X139928571Y-70452380D01*
X140166666Y-71547619D02*
X140928571Y-71547619D01*
X141071428Y-70452380D02*
X141690476Y-70452380D01*
X141357142Y-70833333D01*
X141500000Y-70833333D01*
X141595238Y-70880952D01*
X141642857Y-70928571D01*
X141690476Y-71023809D01*
X141690476Y-71261904D01*
X141642857Y-71357142D01*
X141595238Y-71404761D01*
X141500000Y-71452380D01*
X141214285Y-71452380D01*
X141119047Y-71404761D01*
X141071428Y-71357142D01*
X138928571Y-46857142D02*
X138880952Y-46904761D01*
X138738095Y-46952380D01*
X138642857Y-46952380D01*
X138500000Y-46904761D01*
X138404761Y-46809523D01*
X138357142Y-46714285D01*
X138309523Y-46523809D01*
X138309523Y-46380952D01*
X138357142Y-46190476D01*
X138404761Y-46095238D01*
X138500000Y-46000000D01*
X138642857Y-45952380D01*
X138738095Y-45952380D01*
X138880952Y-46000000D01*
X138928571Y-46047619D01*
X139357142Y-46952380D02*
X139357142Y-45952380D01*
X139357142Y-46428571D02*
X139928571Y-46428571D01*
X139928571Y-46952380D02*
X139928571Y-45952380D01*
X140166666Y-47047619D02*
X140928571Y-47047619D01*
X141595238Y-46285714D02*
X141595238Y-46952380D01*
X141357142Y-45904761D02*
X141119047Y-46619047D01*
X141738095Y-46619047D01*
X93928571Y-71357142D02*
X93880952Y-71404761D01*
X93738095Y-71452380D01*
X93642857Y-71452380D01*
X93500000Y-71404761D01*
X93404761Y-71309523D01*
X93357142Y-71214285D01*
X93309523Y-71023809D01*
X93309523Y-70880952D01*
X93357142Y-70690476D01*
X93404761Y-70595238D01*
X93500000Y-70500000D01*
X93642857Y-70452380D01*
X93738095Y-70452380D01*
X93880952Y-70500000D01*
X93928571Y-70547619D01*
X94357142Y-71452380D02*
X94357142Y-70452380D01*
X94357142Y-70928571D02*
X94928571Y-70928571D01*
X94928571Y-71452380D02*
X94928571Y-70452380D01*
X95166666Y-71547619D02*
X95928571Y-71547619D01*
X96119047Y-70547619D02*
X96166666Y-70500000D01*
X96261904Y-70452380D01*
X96500000Y-70452380D01*
X96595238Y-70500000D01*
X96642857Y-70547619D01*
X96690476Y-70642857D01*
X96690476Y-70738095D01*
X96642857Y-70880952D01*
X96071428Y-71452380D01*
X96690476Y-71452380D01*
X93928571Y-46857142D02*
X93880952Y-46904761D01*
X93738095Y-46952380D01*
X93642857Y-46952380D01*
X93500000Y-46904761D01*
X93404761Y-46809523D01*
X93357142Y-46714285D01*
X93309523Y-46523809D01*
X93309523Y-46380952D01*
X93357142Y-46190476D01*
X93404761Y-46095238D01*
X93500000Y-46000000D01*
X93642857Y-45952380D01*
X93738095Y-45952380D01*
X93880952Y-46000000D01*
X93928571Y-46047619D01*
X94357142Y-46952380D02*
X94357142Y-45952380D01*
X94357142Y-46428571D02*
X94928571Y-46428571D01*
X94928571Y-46952380D02*
X94928571Y-45952380D01*
X95166666Y-47047619D02*
X95928571Y-47047619D01*
X96690476Y-46952380D02*
X96119047Y-46952380D01*
X96404761Y-46952380D02*
X96404761Y-45952380D01*
X96309523Y-46095238D01*
X96214285Y-46190476D01*
X96119047Y-46238095D01*
X119119047Y-47071428D02*
X119880952Y-47071428D01*
D12*
X105428571Y-47107142D02*
X106571428Y-47107142D01*
X106000000Y-47678571D02*
X106000000Y-46535714D01*
D11*
X120670000Y-81170000D02*
X122000000Y-81170000D01*
X120670000Y-82500000D02*
X120670000Y-81170000D01*
X120670000Y-83770000D02*
X123330000Y-83770000D01*
X123330000Y-83770000D02*
X123330000Y-88910000D01*
X120670000Y-83770000D02*
X120670000Y-88910000D01*
X120670000Y-88910000D02*
X123330000Y-88910000D01*
X113670000Y-81170000D02*
X115000000Y-81170000D01*
X113670000Y-82500000D02*
X113670000Y-81170000D01*
X113670000Y-83770000D02*
X116330000Y-83770000D01*
X116330000Y-83770000D02*
X116330000Y-88910000D01*
X113670000Y-83770000D02*
X113670000Y-88910000D01*
X113670000Y-88910000D02*
X116330000Y-88910000D01*
X143810000Y-87540000D02*
X143810000Y-72300000D01*
X136190000Y-87540000D02*
X136190000Y-72300000D01*
X142540000Y-87540000D02*
X142540000Y-72300000D01*
X143810000Y-72300000D02*
X136190000Y-72300000D01*
X143810000Y-87540000D02*
X136190000Y-87540000D01*
X136190000Y-47460000D02*
X136190000Y-62700000D01*
X143810000Y-47460000D02*
X143810000Y-62700000D01*
X137460000Y-47460000D02*
X137460000Y-62700000D01*
X136190000Y-62700000D02*
X143810000Y-62700000D01*
X136190000Y-47460000D02*
X143810000Y-47460000D01*
X98810000Y-87540000D02*
X98810000Y-72300000D01*
X91190000Y-87540000D02*
X91190000Y-72300000D01*
X97540000Y-87540000D02*
X97540000Y-72300000D01*
X98810000Y-72300000D02*
X91190000Y-72300000D01*
X98810000Y-87540000D02*
X91190000Y-87540000D01*
X91190000Y-47460000D02*
X91190000Y-62700000D01*
X98810000Y-47460000D02*
X98810000Y-62700000D01*
X92460000Y-47460000D02*
X92460000Y-62700000D01*
X91190000Y-62700000D02*
X98810000Y-62700000D01*
X91190000Y-47460000D02*
X98810000Y-47460000D01*
X107960000Y-50810000D02*
X118120000Y-50810000D01*
X107960000Y-43190000D02*
X107960000Y-50810000D01*
X118120000Y-43190000D02*
X107960000Y-43190000D01*
X118120000Y-50810000D02*
X118120000Y-43190000D01*
X118120000Y-49540000D02*
X107960000Y-49540000D01*
X129810000Y-42400000D02*
X129810000Y-42660000D01*
X129810000Y-44940000D02*
X129810000Y-46710000D01*
X129810000Y-46710000D02*
X129430000Y-46710000D01*
X122190000Y-46710000D02*
X122190000Y-44940000D01*
X122190000Y-42660000D02*
X122190000Y-42400000D01*
X122190000Y-46710000D02*
X122570000Y-46710000D01*
X120560000Y-57170000D02*
X119310000Y-57170000D01*
X120560000Y-77610000D02*
X120560000Y-57170000D01*
X116060000Y-77610000D02*
X120560000Y-77610000D01*
X116060000Y-57170000D02*
X116060000Y-77610000D01*
X117310000Y-57170000D02*
X116060000Y-57170000D01*
X119310000Y-57170000D02*
G75*
G02X117310000Y-57170000I-1000000J0D01*
G01*
D10*
X121666666Y-79622380D02*
X121666666Y-80336666D01*
X121619047Y-80479523D01*
X121523809Y-80574761D01*
X121380952Y-80622380D01*
X121285714Y-80622380D01*
X122285714Y-80050952D02*
X122190476Y-80003333D01*
X122142857Y-79955714D01*
X122095238Y-79860476D01*
X122095238Y-79812857D01*
X122142857Y-79717619D01*
X122190476Y-79670000D01*
X122285714Y-79622380D01*
X122476190Y-79622380D01*
X122571428Y-79670000D01*
X122619047Y-79717619D01*
X122666666Y-79812857D01*
X122666666Y-79860476D01*
X122619047Y-79955714D01*
X122571428Y-80003333D01*
X122476190Y-80050952D01*
X122285714Y-80050952D01*
X122190476Y-80098571D01*
X122142857Y-80146190D01*
X122095238Y-80241428D01*
X122095238Y-80431904D01*
X122142857Y-80527142D01*
X122190476Y-80574761D01*
X122285714Y-80622380D01*
X122476190Y-80622380D01*
X122571428Y-80574761D01*
X122619047Y-80527142D01*
X122666666Y-80431904D01*
X122666666Y-80241428D01*
X122619047Y-80146190D01*
X122571428Y-80098571D01*
X122476190Y-80050952D01*
X114666666Y-79622380D02*
X114666666Y-80336666D01*
X114619047Y-80479523D01*
X114523809Y-80574761D01*
X114380952Y-80622380D01*
X114285714Y-80622380D01*
X115047619Y-79622380D02*
X115714285Y-79622380D01*
X115285714Y-80622380D01*
X139666666Y-88452380D02*
X139666666Y-89166666D01*
X139619047Y-89309523D01*
X139523809Y-89404761D01*
X139380952Y-89452380D01*
X139285714Y-89452380D01*
X140571428Y-88452380D02*
X140380952Y-88452380D01*
X140285714Y-88500000D01*
X140238095Y-88547619D01*
X140142857Y-88690476D01*
X140095238Y-88880952D01*
X140095238Y-89261904D01*
X140142857Y-89357142D01*
X140190476Y-89404761D01*
X140285714Y-89452380D01*
X140476190Y-89452380D01*
X140571428Y-89404761D01*
X140619047Y-89357142D01*
X140666666Y-89261904D01*
X140666666Y-89023809D01*
X140619047Y-88928571D01*
X140571428Y-88880952D01*
X140476190Y-88833333D01*
X140285714Y-88833333D01*
X140190476Y-88880952D01*
X140142857Y-88928571D01*
X140095238Y-89023809D01*
X139666666Y-63952380D02*
X139666666Y-64666666D01*
X139619047Y-64809523D01*
X139523809Y-64904761D01*
X139380952Y-64952380D01*
X139285714Y-64952380D01*
X140619047Y-63952380D02*
X140142857Y-63952380D01*
X140095238Y-64428571D01*
X140142857Y-64380952D01*
X140238095Y-64333333D01*
X140476190Y-64333333D01*
X140571428Y-64380952D01*
X140619047Y-64428571D01*
X140666666Y-64523809D01*
X140666666Y-64761904D01*
X140619047Y-64857142D01*
X140571428Y-64904761D01*
X140476190Y-64952380D01*
X140238095Y-64952380D01*
X140142857Y-64904761D01*
X140095238Y-64857142D01*
X94666666Y-88452380D02*
X94666666Y-89166666D01*
X94619047Y-89309523D01*
X94523809Y-89404761D01*
X94380952Y-89452380D01*
X94285714Y-89452380D01*
X95571428Y-88785714D02*
X95571428Y-89452380D01*
X95333333Y-88404761D02*
X95095238Y-89119047D01*
X95714285Y-89119047D01*
X94666666Y-64452380D02*
X94666666Y-65166666D01*
X94619047Y-65309523D01*
X94523809Y-65404761D01*
X94380952Y-65452380D01*
X94285714Y-65452380D01*
X95047619Y-64452380D02*
X95666666Y-64452380D01*
X95333333Y-64833333D01*
X95476190Y-64833333D01*
X95571428Y-64880952D01*
X95619047Y-64928571D01*
X95666666Y-65023809D01*
X95666666Y-65261904D01*
X95619047Y-65357142D01*
X95571428Y-65404761D01*
X95476190Y-65452380D01*
X95190476Y-65452380D01*
X95095238Y-65404761D01*
X95047619Y-65357142D01*
X113166666Y-49952380D02*
X113166666Y-50666666D01*
X113119047Y-50809523D01*
X113023809Y-50904761D01*
X112880952Y-50952380D01*
X112785714Y-50952380D01*
X113595238Y-50047619D02*
X113642857Y-50000000D01*
X113738095Y-49952380D01*
X113976190Y-49952380D01*
X114071428Y-50000000D01*
X114119047Y-50047619D01*
X114166666Y-50142857D01*
X114166666Y-50238095D01*
X114119047Y-50380952D01*
X113547619Y-50952380D01*
X114166666Y-50952380D01*
X125666666Y-47752380D02*
X125666666Y-48466666D01*
X125619047Y-48609523D01*
X125523809Y-48704761D01*
X125380952Y-48752380D01*
X125285714Y-48752380D01*
X126666666Y-48752380D02*
X126095238Y-48752380D01*
X126380952Y-48752380D02*
X126380952Y-47752380D01*
X126285714Y-47895238D01*
X126190476Y-47990476D01*
X126095238Y-48038095D01*
X117571904Y-56622380D02*
X117571904Y-55622380D01*
X117810000Y-55622380D01*
X117952857Y-55670000D01*
X118048095Y-55765238D01*
X118095714Y-55860476D01*
X118143333Y-56050952D01*
X118143333Y-56193809D01*
X118095714Y-56384285D01*
X118048095Y-56479523D01*
X117952857Y-56574761D01*
X117810000Y-56622380D01*
X117571904Y-56622380D01*
X119095714Y-56622380D02*
X118524285Y-56622380D01*
X118810000Y-56622380D02*
X118810000Y-55622380D01*
X118714761Y-55765238D01*
X118619523Y-55860476D01*
X118524285Y-55908095D01*
M02*
